<?xml version="1.0" standalone="no"?><!DOCTYPE svg PUBLIC "-//W3C//DTD SVG 1.1//EN" "http://www.w3.org/Graphics/SVG/1.1/DTD/svg11.dtd"><svg t="1544286537087" class="icon" style="" viewBox="0 0 1024 1024" version="1.1" xmlns="http://www.w3.org/2000/svg" p-id="1898" xmlns:xlink="http://www.w3.org/1999/xlink" width="128" height="128"><defs><style type="text/css"></style></defs><path d="M857.088 68.266667C710.656 68.266667 514.321067 168.686933 382.429867 341.333333H273.066667c-78.984533 0-124.245333 58.9824-155.4432 121.309867L75.776 546.133333H273.066667l102.4 102.4L477.866667 750.933333V948.155733l83.490133-41.7792C623.684267 875.246933 682.666667 829.917867 682.666667 750.933333V641.570133c172.6464-131.8912 273.066667-328.2944 273.066666-474.658133V68.266667h-98.645333zM682.666667 273.066667a68.266667 68.266667 0 1 1 0 136.533333 68.266667 68.266667 0 1 1 0-136.533333z m-443.733334 409.6l-34.133333 34.133333c-49.288533 49.288533-68.266667 170.666667-68.266667 170.666667s115.9168-13.5168 170.666667-68.266667l34.133333-34.133333L238.933333 682.666667z" fill="#ffffff" p-id="1899" data-spm-anchor-id="a313x.7781069.0.i13" class=""></path></svg>